
<svg xmlns="http://www.w3.org/2000/svg" viewBox="0 0 100 100"><path fill="none" d="M16.348 92.364l67.264.04c.021 0 .041-.021.041-.04v-2.078l-67.265-.04-.04 2.118zM62.951 29.628l-.006-.077c-.011-.382-.05-.77-.102-1.159-.536.644-1.196 1.031-1.913 1.031h-1.134c-1.453 0-2.69-1.581-3.072-3.722-.382 2.141-1.619 3.722-3.072 3.722h-1.134c-1.453 0-2.69-1.581-3.072-3.722-.382 2.141-1.619 3.722-3.078 3.722H45.24c-1.453 0-2.69-1.568-3.072-3.703-.389 2.135-1.625 3.703-3.078 3.703h-1.134c-.715 0-1.377-.388-1.911-1.032-.025.184-.066.372-.081.555-.03.325-.042.653-.042.988v20.598h27.044V29.933c-.003-.102-.001-.203-.015-.305zm-7.97 17.468c-2.777 0-5.102-1.953-5.684-4.557-.582 2.604-2.907 4.557-5.684 4.557a5.835 5.835 0 0 1-5.829-5.828 5.835 5.835 0 0 1 5.829-5.828c2.777 0 5.102 1.953 5.684 4.557.582-2.604 2.907-4.557 5.684-4.557a5.835 5.835 0 0 1 5.828 5.828 5.835 5.835 0 0 1-5.828 5.828z"/><circle fill="none" cx="54.981" cy="41.268" r="3.136"/><path fill="none" d="M43.613 38.133c-1.729 0-3.136 1.407-3.136 3.136s1.407 3.135 3.136 3.135 3.135-1.406 3.135-3.135-1.406-3.136-3.135-3.136z"/><path d="M35.92 29.933c0-.335.012-.662.042-.988.015-.182.056-.371.081-.555.535.644 1.196 1.032 1.911 1.032h1.134c1.453 0 2.69-1.568 3.078-3.703.382 2.135 1.619 3.703 3.072 3.703h1.128c1.459 0 2.696-1.581 3.078-3.722.382 2.141 1.619 3.722 3.072 3.722h1.134c1.453 0 2.69-1.581 3.072-3.722.382 2.141 1.619 3.722 3.072 3.722h1.134c.717 0 1.377-.387 1.913-1.031.052.389.091.777.102 1.159l.006.077c.014.102.012.203.012.305V50.53h1.432V29.933c0-.152-.002-.305-.019-.457a12.702 12.702 0 0 0-.249-2.121 12.864 12.864 0 0 0-6.977-8.964l-.249-.12-.154-.067c-.011-.07-.01-.145-.023-.215-.011.062-.013.131-.023.195l-.023-.01-.448-.198a7.003 7.003 0 0 0-.615-.219 12.723 12.723 0 0 0-4.037-.655h-4.283c-1.788 0-3.513.375-5.111 1.087-.01-.065-.011-.135-.023-.199-.012.07-.014.147-.025.218-.047.021-.097.036-.143.057a2.019 2.019 0 0 0-.263.125c-3.568 1.737-6.176 5.083-6.977 8.95a12 12 0 0 0-.216 1.481c-.033.358-.047.732-.047 1.112v20.598h1.432V29.933zM30.041 40.153a2.927 2.927 0 0 0 2.923 2.923V37.23a2.927 2.927 0 0 0-2.923 2.923zM65.987 43.076a2.927 2.927 0 0 0 2.923-2.923 2.927 2.927 0 0 0-2.923-2.923v5.846z"/><path d="M54.981 35.441c-2.777 0-5.102 1.953-5.684 4.557-.582-2.604-2.907-4.557-5.684-4.557a5.835 5.835 0 0 0-5.829 5.828 5.835 5.835 0 0 0 5.829 5.828c2.777 0 5.102-1.953 5.684-4.557.582 2.604 2.907 4.557 5.684 4.557a5.835 5.835 0 0 0 5.828-5.828 5.835 5.835 0 0 0-5.828-5.828zm-11.368 8.963c-1.729 0-3.136-1.406-3.136-3.135s1.407-3.136 3.136-3.136 3.135 1.407 3.135 3.136-1.406 3.135-3.135 3.135zm11.368 0c-1.729 0-3.136-1.406-3.136-3.135s1.406-3.136 3.136-3.136c1.729 0 3.136 1.407 3.136 3.136s-1.407 3.135-3.136 3.135zM69.188 9.92l2.767 1.486-3.94 7.336-2.767-1.486zM51.492 5.595l.11 8.326-3.14.042-.111-8.326zM30.77 10.434l4.134 7.228-2.727 1.56-4.134-7.228zM85.652 54.639a4.112 4.112 0 0 0-4.108-4.107H18.455a4.112 4.112 0 0 0-4.107 4.107v30.913c0 1.125.456 2.143 1.19 2.886a2.04 2.04 0 0 0-1.19 1.849v2.078c0 1.125.915 2.04 2.04 2.04h67.224a2.043 2.043 0 0 0 2.041-2.04v-2.078c0-.82-.49-1.525-1.19-1.848a4.096 4.096 0 0 0 1.19-2.886V54.639zm-69.304 0a2.11 2.11 0 0 1 2.107-2.107h63.089a2.11 2.11 0 0 1 2.108 2.107v30.913a2.11 2.11 0 0 1-2.108 2.108H18.455a2.11 2.11 0 0 1-2.107-2.108V54.639zm67.304 37.725c0 .02-.021.04-.041.04l-67.264-.04.04-2.118 67.265.04v2.078z"/><path d="M50 74.171c1.804 0 3.271-1.468 3.271-3.271S51.804 67.628 50 67.628s-3.271 1.468-3.271 3.271 1.468 3.272 3.271 3.272zm0-4.543a1.272 1.272 0 1 1-1.271 1.271c0-.701.57-1.271 1.271-1.271z"/></svg>
